# xmcd
#
# Track frame offsets:
#	150
#	19538
#	38409
#	58197
#	79208
#	96146
#	117321
#	131558
#	147366
#	165278
#	181618
#	197310
#	215042
#	231881
#	247795
#
# Disc length: 3534 seconds
#
# Revision: 0
# Processed by: cddbd v1.5.2PL0 Copyright (c) Steve Scherf et al.
# Submitted via: EasyCDDAExtractor 16.0.8.1
#
DISCID=ba0dcc0f
DTITLE=古巨基 - The Very Best of Leo Collection (4CD)
DYEAR=1900
DGENRE=
TTITLE0=眼睛不能沒眼淚
TTITLE1=愛變了這世界襯衣
TTITLE2=妳是陽光空氣
TTITLE3=最後勝利
TTITLE4=愛情馬戲班
TTITLE5=愛的解釋
TTITLE6=一生何求
TTITLE7=順風車
TTITLE8=我還是你的
TTITLE9=完美的一天
TTITLE10=原來的你
TTITLE11=對你始終痴心一往
TTITLE12=有心
TTITLE13=日落大道
TTITLE14=Can We Try
EXTD=
EXTT0=
EXTT1=
EXTT2=
EXTT3=
EXTT4=
EXTT5=
EXTT6=
EXTT7=
EXTT8=
EXTT9=
EXTT10=
EXTT11=
EXTT12=
EXTT13=
EXTT14=
PLAYORDER=
